<?xml version="1.0" encoding="UTF-8" standalone="no"?>
<svg
   xmlns:dc="http://purl.org/dc/elements/1.1/"
   xmlns:cc="http://creativecommons.org/ns#"
   xmlns:rdf="http://www.w3.org/1999/02/22-rdf-syntax-ns#"
   xmlns:svg="http://www.w3.org/2000/svg"
   xmlns="http://www.w3.org/2000/svg"
   xmlns:sodipodi="http://sodipodi.sourceforge.net/DTD/sodipodi-0.dtd"
   xmlns:inkscape="http://www.inkscape.org/namespaces/inkscape"
   x="0px"
   y="0px"
   width="48"
   height="48"
   viewBox="0 0 172 172"
   style=" fill:#000000;"
   version="1.1"
   id="svg13"
   sodipodi:docname="whatsapp.svg"
   inkscape:version="0.92.3 (2405546, 2018-03-11)">
  <metadata
     id="metadata19">
    <rdf:RDF>
      <cc:Work
         rdf:about="">
        <dc:format>image/svg+xml</dc:format>
        <dc:type
           rdf:resource="http://purl.org/dc/dcmitype/StillImage" />
        <dc:title></dc:title>
      </cc:Work>
    </rdf:RDF>
  </metadata>
  <defs
     id="defs17" />
  <sodipodi:namedview
     pagecolor="#ffffff"
     bordercolor="#666666"
     borderopacity="1"
     objecttolerance="10"
     gridtolerance="10"
     guidetolerance="10"
     inkscape:pageopacity="0"
     inkscape:pageshadow="2"
     inkscape:window-width="2736"
     inkscape:window-height="1699"
     id="namedview15"
     showgrid="false"
     inkscape:zoom="19.666667"
     inkscape:cx="18.658086"
     inkscape:cy="12.216091"
     inkscape:window-x="-13"
     inkscape:window-y="-13"
     inkscape:window-maximized="1"
     inkscape:current-layer="g11" />
  <g
     font-size="none"
     font-weight="none"
     style="mix-blend-mode: normal"
     fill-rule="none"
     stroke-miterlimit="10"
     text-anchor="none"
     id="g11"
     font-family="none"
     stroke-dashoffset="0"
     stroke-dasharray=""
     stroke-linejoin="miter"
     stroke-linecap="butt"
     stroke-width="1"
     stroke="none"
     fill="none">
    <path
       d="M 0 172 v -172 h 172 v 172 Z"
       id="path2"
       fill-rule="nonzero"
       fill="none" />
    <path
       style="fill:#000000;fill-rule:nonzero;stroke-width:0.27906978"
       d="M 24 0 C 10.745163 0 0 10.745163 0 24 C 0 37.254837 10.745163 48 24 48 C 37.254837 48 48 37.254837 48 24 C 48 10.745163 37.254837 0 24 0 z M 24.007812 10.158203 C 27.698399 10.158203 31.163725 11.597297 33.771484 14.205078 C 36.374742 16.812846 37.808594 20.278779 37.808594 23.964844 C 37.804073 31.576193 31.61453 37.765625 24.007812 37.765625 L 24.003906 37.765625 C 21.693906 37.761121 19.420444 37.184814 17.408203 36.083984 L 10.089844 38.005859 L 12.046875 30.853516 C 10.837741 28.760074 10.202527 26.386931 10.207031 23.955078 C 10.207031 16.348334 16.40104 10.158203 24.007812 10.158203 z M 24.011719 12.492188 C 17.681719 12.492188 12.535156 17.634232 12.535156 23.955078 C 12.535156 26.120687 13.138578 28.23322 14.289062 30.060547 L 14.560547 30.494141 L 13.400391 34.724609 L 17.746094 33.587891 L 18.166016 33.835938 C 19.925523 34.878093 21.946503 35.433594 24.003906 35.433594 L 24.007812 35.433594 C 30.32866 35.433594 35.476562 30.290323 35.476562 23.964844 C 35.476562 20.901439 34.284767 18.023657 32.119141 15.853516 C 29.953503 13.687898 27.075123 12.492188 24.011719 12.492188 z M 19.121094 17.585938 C 19.35117 17.585938 19.58282 17.584742 19.78125 17.59375 C 19.99331 17.607265 20.276898 17.513338 20.556641 18.185547 C 20.845389 18.87589 21.535391 20.576531 21.621094 20.748047 C 21.706796 20.919449 21.765188 21.121486 21.652344 21.351562 C 21.535109 21.581639 21.476204 21.727237 21.304688 21.925781 C 21.133286 22.12883 20.944999 22.375912 20.787109 22.529297 C 20.615708 22.700813 20.43367 22.88695 20.636719 23.234375 C 20.835263 23.577293 21.530549 24.7098 22.554688 25.621094 C 23.872081 26.798732 24.982653 27.164536 25.330078 27.335938 C 25.672996 27.507339 25.875789 27.475572 26.074219 27.25 C 26.277267 27.019924 26.935825 26.243909 27.166016 25.896484 C 27.396092 25.553566 27.62563 25.607261 27.941406 25.724609 C 28.257299 25.837337 29.953957 26.672348 30.296875 26.84375 C 30.6443 27.01977 30.875235 27.105626 30.960938 27.25 C 31.04664 27.394374 31.045965 28.083648 30.761719 28.886719 C 30.472971 29.694411 29.096795 30.430082 28.433594 30.529297 C 27.838075 30.614999 27.08536 30.650395 26.259766 30.388672 C 25.758958 30.230783 25.117965 30.018543 24.296875 29.662109 C 20.836365 28.168807 18.575813 24.68651 18.404297 24.460938 C 18.232895 24.230872 16.996094 22.588926 16.996094 20.892578 C 16.996094 19.196102 17.885396 18.360496 18.201172 18.017578 C 18.517065 17.670156 18.891017 17.585938 19.121094 17.585938 z "
       id="path4"
       transform="scale(3.5833333)" />
  </g>
</svg>
