<svg xmlns="http://www.w3.org/2000/svg" x="0px" y="0px"
width="48" height="48"
viewBox="0 0 24 24"
style=" fill:#000000;">    <path xmlns="http://www.w3.org/2000/svg" d="M 12 0 C 5.373 0 0 5.373 0 12 c 0 6.016 4.432 10.984 10.206 11.852 V 15.18 H 7.237 v -3.154 h 2.969 V 9.927 c 0 -3.475 1.693 -5 4.581 -5 c 1.383 0 2.115 0.103 2.461 0.149 v 2.753 h -1.97 c -1.226 0 -1.654 1.163 -1.654 2.473 v 1.724 h 3.593 L 16.73 15.18 h -3.106 v 8.697 C 19.481 23.083 24 18.075 24 12 C 24 5.373 18.627 0 12 0 Z" /></svg>